<?xml version="1.0" encoding="UTF-8"?>
<!-- Copyright (c) 2026 epiknice -->
<svg id="Layer_1" data-name="Layer 1" xmlns="http://www.w3.org/2000/svg" viewBox="0 0 725.67 725.42">
  <defs>
    <style>
      .cls-1 {
        fill: #fff;
      }

      .cls-2 {
        fill: #ed1c24;
      }
    </style>
  </defs>
  <g id="r-a_outlines_" data-name="r-a (outlines)">
    <ellipse id="red" class="cls-2" cx="362.83" cy="362.71" rx="362.83" ry="362.71"/>
    <path id="black" d="M725.67,362.71c0-100.16-40.61-190.83-106.26-256.47L106.27,619.19c65.66,65.64,156.37,106.24,256.56,106.24,200.39,0,362.83-162.39,362.83-362.71Z"/>
    <path id="circle" class="cls-1" d="M362.83,702.52c-187.73,0-339.92-152.14-339.92-339.8S175.1,22.91,362.83,22.91s339.92,152.14,339.92,339.8-152.19,339.8-339.92,339.8ZM679.84,362.71c0-175.02-141.93-316.9-317-316.9S45.83,187.7,45.83,362.71s141.93,316.9,317,316.9,317-141.88,317-316.9Z"/>
    <path id="A" class="cls-1" d="M439.17,329.18h69.92l78.69,242.33h-50.24l-18.61-58.65h-95.92l-18.62,58.65h-43.57l78.35-242.33ZM434.96,475.98h72.02l-36.19-112.74-35.83,112.74Z"/>
    <path id="R" class="cls-1" d="M146.68,146h100.19c25.42,0,44.87,6.3,58.37,18.89s20.24,30.35,20.24,53.28c0,16.64-3.37,30.58-10.12,41.82s-16.54,19.45-29.36,24.62l46.22,94.09h-49.25l-42.85-87.35h-47.23v87.35h-46.21v-232.71ZM278.25,223.56v-9.78c0-8.99-2.76-16.36-8.26-22.09-5.52-5.73-14.34-8.6-26.48-8.6h-50.61v71.16h50.61c11.92,0,20.68-2.87,26.32-8.6,5.62-5.73,8.43-13.1,8.43-22.09Z"/>
  </g>
</svg>
